<svg role="img" viewBox="0 0 24 24" xmlns="http://www.w3.org/2000/svg"><title>GitHub</title><path d="M12 .297C5.373.297 0 5.67 0 12.297c0 5.303 3.438 9.8 8.205 11.387.6.113.82-.258.82-.577 0-.285-.01-1.04-.015-2.04-3.338.724-4.042-1.61-4.042-1.61-.546-1.385-1.333-1.755-1.333-1.755-1.09-.745.082-.729.082-.729 1.205.085 1.84 1.237 1.84 1.237 1.07 1.835 2.809 1.305 3.495.998.107-.775.418-1.305.762-1.604-2.665-.3-5.467-1.334-5.467-5.93 0-1.31.467-2.38 1.235-3.22-.123-.303-.535-1.524.117-3.176 0 0 1.008-.322 3.3 1.23a11.49 11.49 0 0 1 3.003-.404c1.02.005 2.047.138 3.003.404 2.29-1.552 3.296-1.23 3.296-1.23.653 1.653.242 2.874.12 3.176.77.84 1.233 1.91 1.233 3.22 0 4.609-2.807 5.625-5.48 5.92.43.372.814 1.103.814 2.222 0 1.606-.015 2.898-.015 3.293 0 .322.216.694.825.576C20.565 22.092 24 17.592 24 12.297 24 5.67 18.627.297 12 .297Z"/></svg>
